# File created by Blade
# Date/Time:  Wed Jan 28 15:39:58 2015
#---------------------------------------------------------
:version 1.10
:name HOM
:units
  mass 1.0
  length 1.000000
  angle deg
:documentation
     Acclaim Skeleton File
:root
   axis xyz
   order TX TY TZ RX RY RZ
   position 0.000000 0.000000 0.000000
   orientation 0 0 0
:bonedata
   begin
      id 1
      name Spine_dum
      direction 0.000000 1.000000 0.000000
      length 6.864287
      axis 0.0 0.0 0.0 xyz
   end
   begin
      id 2
      name LeftUpLeg_dum
      direction 1.000000 0.000000 0.000000
      length 4.117376
      axis 0.0 0.0 0.0 xyz
   end
   begin
      id 3
      name RightUpLeg_dum
      direction -1.000000 0.000000 0.000000
      length 4.117376
      axis 0.0 0.0 0.0 xyz
   end
   begin
      id 4
      name Spine
      direction 0.000000 1.000000 0.000000
      length 0.000000
      axis 0.0 0.0 0.0 xyz
      dof rx ry rz
   end
   begin
      id 5
      name Spine_dum1
      direction 0.000000 1.000000 0.000000
      length 15.393827
      axis 0.0 0.0 0.0 xyz
   end
   begin
      id 6
      name Spine_dum2
      direction 0.000000 1.000000 0.000000
      length 9.314826
      axis 0.0 0.0 0.0 xyz
   end
   begin
      id 7
      name Spine_dum3
      direction 0.000000 1.000000 0.000000
      length 9.314826
      axis 0.0 0.0 0.0 xyz
   end
   begin
      id 8
      name Head
      direction 0.000000 1.000000 0.000000
      length 4.527550
      axis 0.0 0.0 0.0 xyz
      dof rx ry rz
   end
   begin
      id 9
      name LeftShoulder
      direction 1.000000 0.000000 0.000000
      length 8.275398
      axis 0.0 0.0 -90.0 xyz
      dof rx ry rz
   end
   begin
      id 10
      name LeftArm
      direction 1.000000 0.000000 0.000000
      length 12.002200
      axis 0.0 0.0 -90.0 xyz
      dof rx ry rz
   end
   begin
      id 11
      name LeftForeArm
      direction 1.000000 0.000000 0.000000
      length 10.144633
      axis 0.0 0.0 -90.0 xyz
      dof ry rz rx
   end
   begin
      id 12
      name LeftHand
      direction 0.000000 0.000000 0.000000
      length 0.000000
      axis 0.0 0.0 -90.0 xyz
      dof rx ry rz
   end
   begin
      id 13
      name LeftHand_dum1
      direction 0.000000 0.000000 0.000000
      length 0.000000
      axis 0.0 0.0 -90.0 xyz
   end
   begin
      id 14
      name LeftHand_dum2
      direction 1.000000 0.000000 0.000000
      length 3.937000
      axis 0.0 0.0 -90.0 xyz
   end
   begin
      id 15
      name LeftHandThumb1
      direction 0.000000 0.000000 1.000000
      length 3.937000
      axis 0.0 0.0 -90.0 xyz
      dof rx rz ry
   end
   begin
      id 16
      name RightShoulder
      direction -1.000000 0.000000 0.000000
      length 8.275398
      axis 0.0 0.0 90.0 xyz
      dof rx ry rz
   end
   begin
      id 17
      name RightArm
      direction -1.000000 0.000000 0.000000
      length 12.002200
      axis 0.0 0.0 90.0 xyz
      dof rx ry rz
   end
   begin
      id 18
      name RightForeArm
      direction -1.000000 0.000000 0.000000
      length 10.144633
      axis 0.0 0.0 90.0 xyz
      dof ry rz rx
   end
   begin
      id 19
      name RightHand
      direction 0.000000 0.000000 0.000000
      length 0.000000
      axis 0.0 0.0 90.0 xyz
      dof rx ry rz
   end
   begin
      id 20
      name RightHand_dum1
      direction 0.000000 0.000000 0.000000
      length 0.000000
      axis 0.0 0.0 90.0 xyz
   end
   begin
      id 21
      name RightHand_dum2
      direction -1.000000 0.000000 0.000000
      length 3.937000
      axis 0.0 0.0 90.0 xyz
   end
   begin
      id 22
      name RightHandThumb1
      direction 0.000000 0.000000 1.000000
      length 3.937000
      axis 0.0 0.0 90.0 xyz
      dof rx rz ry
   end
   begin
      id 23
      name LeftUpLeg
      direction 0.000000 -1.000000 0.000000
      length 19.394322
      axis 0.0 0.0 0.0 xyz
      dof rx ry rz
   end
   begin
      id 24
      name LeftLeg
      direction 0.000000 -1.000000 0.000000
      length 17.609563
      axis 0.0 0.0 0.0 xyz
      dof rx ry rz
   end
   begin
      id 25
      name LeftFoot
      direction 0.000000 -0.258819 0.965926
      length 6.085393
      axis 15.0 0.0 0.0 xyz
      dof rx ry rz
   end
   begin
      id 26
      name LeftToeBase
      direction 0.000000 0.000000 1.000000
      length 2.952750
      axis 0.0 0.0 0.0 xyz
      dof rx ry rz
   end
   begin
      id 27
      name RightUpLeg
      direction 0.000000 -1.000000 0.000000
      length 19.394322
      axis 0.0 0.0 0.0 xyz
      dof rx ry rz
   end
   begin
      id 28
      name RightLeg
      direction 0.000000 -1.000000 0.000000
      length 17.609563
      axis 0.0 0.0 0.0 xyz
      dof rx ry rz
   end
   begin
      id 29
      name RightFoot
      direction 0.000000 -0.258819 0.965926
      length 6.085393
      axis 15.0 0.0 0.0 xyz
      dof rx ry rz
   end
   begin
      id 30
      name RightToeBase
      direction 0.000000 0.000000 1.000000
      length 2.952750
      axis 0.0 0.0 0.0 xyz
      dof rx ry rz
   end
:hierarchy
   begin
      root Spine_dum LeftUpLeg_dum RightUpLeg_dum
      Spine_dum Spine
      LeftUpLeg_dum LeftUpLeg
      RightUpLeg_dum RightUpLeg
      Spine Spine_dum1 Spine_dum2 Spine_dum3
      Spine_dum1 Head
      Spine_dum2 LeftShoulder
      Spine_dum3 RightShoulder
      LeftShoulder LeftArm
      LeftArm LeftForeArm
      LeftForeArm LeftHand
      LeftHand LeftHand_dum1 LeftHand_dum2
      LeftHand_dum1 LeftHandThumb1
      RightShoulder RightArm
      RightArm RightForeArm
      RightForeArm RightHand
      RightHand RightHand_dum1 RightHand_dum2
      RightHand_dum1 RightHandThumb1
      LeftUpLeg LeftLeg
      LeftLeg LeftFoot
      LeftFoot LeftToeBase
      RightUpLeg RightLeg
      RightLeg RightFoot
      RightFoot RightToeBase
   end

# File created by Blade
# Date/Time:  Wed Jan 28 15:40:07 2015
# Frame Rate: 120.000 fps
#------------------------------------------------------
:FULLY-SPECIFIED
:DEGREES
1730
root -5.688554 39.522693 -12.749801 12.215431 -13.339907 5.032197
Spine 18.571940 -4.325867 2.491364
Head -1.677302 0.090498 -6.516797
LeftShoulder -11.000746 17.528219 11.224259
LeftArm 22.643157 25.822631 -77.823942
LeftForeArm 9.286106 -0.000000 42.148289
LeftHand 3.260792 -0.000000 -0.836978
LeftHandThumb1 -26.253704 0.000000 33.147579
RightShoulder -5.705900 4.628199 -20.263578
RightArm 4.002459 7.935556 63.165507
RightForeArm -23.150426 -0.000000 64.555189
RightHand -9.813553 0.000000 -32.529405
RightHandThumb1 -24.326973 -0.000000 -32.862282
LeftUpLeg -18.592604 14.813733 -6.620225
LeftLeg 6.415504 -0.000000 -0.000000
LeftFoot -4.292522 9.262589 -15.750254
LeftToeBase 11.665886 -0.000000 -0.000000
RightUpLeg -17.319570 -15.065896 2.830195
RightLeg 21.585020 -0.000000 -0.000000
RightFoot -26.765730 -24.955814 25.904043
RightToeBase 4.506158 -0.000000 -0.000000
1731
root -5.600702 39.538933 -12.663862 12.001982 -13.332319 5.031997
Spine 18.577040 -4.359168 2.158182
Head -1.729339 0.235082 -6.571793
LeftShoulder -10.970473 17.535107 11.295748
LeftArm 23.028546 25.924363 -77.572397
LeftForeArm 9.178249 -0.000000 41.806652
LeftHand 3.231840 -0.000000 -0.731166
LeftHandThumb1 -26.253704 0.000000 33.147579
RightShoulder -5.741112 4.441441 -20.238759
RightArm 3.930847 7.511528 63.520209
RightForeArm -22.823453 -0.000000 65.065132
RightHand -9.122241 -0.000000 -31.819255
RightHandThumb1 -24.326973 -0.000000 -32.862282
LeftUpLeg -18.186748 15.006323 -6.723249
LeftLeg 6.237884 -0.000000 -0.000000
LeftFoot -4.231249 8.979766 -15.669171
LeftToeBase 11.694713 -0.000000 -0.000000
RightUpLeg -17.239565 -15.198687 2.606757
RightLeg 22.024774 -0.000000 -0.000000
RightFoot -26.641172 -24.864549 26.082386
RightToeBase 4.442193 -0.000000 -0.000000
1732
root -5.510832 39.555140 -12.579571 11.825239 -13.283169 5.007428
Spine 18.519200 -4.461859 1.869220
Head -1.737637 0.467879 -6.640610
LeftShoulder -10.841459 17.420477 11.451381
LeftArm 23.122635 25.965149 -77.529553
LeftForeArm 9.060347 -0.000000 41.497983
LeftHand 3.341182 -0.000000 -0.631218
LeftHandThumb1 -26.253704 0.000000 33.147579
RightShoulder -5.752659 4.348225 -20.205705
RightArm 3.800746 6.869152 63.784501
RightForeArm -22.751729 -0.000000 65.578438
RightHand -9.049524 -0.000000 -31.529430
RightHandThumb1 -24.326973 -0.000000 -32.862282
LeftUpLeg -17.835936 15.141742 -6.806685
LeftLeg 6.096028 -0.000000 -0.000000
LeftFoot -4.164761 8.742775 -15.460356
LeftToeBase 11.725405 -0.000000 -0.000000
RightUpLeg -17.208388 -15.343643 2.413957
RightLeg 22.509024 -0.000000 -0.000000
RightFoot -26.515165 -24.772496 26.300007
RightToeBase 4.355523 -0.000000 -0.000000
1733
root -5.416285 39.569518 -12.491113 11.617381 -13.212750 4.964413
Spine 18.509888 -4.593304 1.643307
Head -1.758528 0.706403 -6.755583
LeftShoulder -10.821582 17.403475 11.536229
LeftArm 23.381865 26.002048 -77.449156
LeftForeArm 9.083081 -0.000000 41.227737
LeftHand 3.285246 -0.000000 -0.622494
LeftHandThumb1 -26.253704 0.000000 33.147579
RightShoulder -5.778178 4.320800 -20.243717
RightArm 3.632774 6.173035 64.058825
RightForeArm -22.868027 -0.000000 66.059261
RightHand -9.206080 0.000000 -31.425933
RightHandThumb1 -24.326973 -0.000000 -32.862282
LeftUpLeg -17.335114 14.995845 -6.766312
LeftLeg 5.784950 -0.000000 -0.000000
LeftFoot -4.149544 8.648316 -15.536685
LeftToeBase 11.797743 -0.000000 -0.000000
RightUpLeg -17.163332 -15.617859 2.229097
RightLeg 23.043605 -0.000000 -0.000000
RightFoot -26.302864 -24.565689 26.465533
RightToeBase 4.147847 -0.000000 -0.000000
